<svg width="206" height="76" viewBox="0 0 206 76" fill="none" xmlns="http://www.w3.org/2000/svg">
<g filter="url(#filter0_d_3223_23587)">
<path d="M35.044 41.106C35.044 40.6513 34.8607 40.226 34.494 39.83C34.1273 39.434 33.6653 39.0747 33.108 38.752C32.5653 38.4147 31.8247 38.004 30.886 37.52C29.7713 36.9333 28.8767 36.4347 28.202 36.024C27.5273 35.5987 26.948 35.1 26.464 34.528C25.9947 33.956 25.76 33.3253 25.76 32.636C25.76 31.9027 26.068 31.118 26.684 30.282C27.3 29.4313 28.048 28.72 28.928 28.148C29.8227 27.5613 30.644 27.268 31.392 27.268C32.3013 27.268 33.3573 27.378 34.56 27.598C35.7627 27.818 36.6427 28.0527 37.2 28.302V32.57H36.364C35.6453 31.382 34.8533 30.458 33.988 29.798C33.1373 29.138 32.2427 28.808 31.304 28.808C30.468 28.808 29.8007 29.072 29.302 29.6C28.818 30.1133 28.576 30.788 28.576 31.624C28.576 32.108 28.7593 32.5627 29.126 32.988C29.5073 33.3987 29.9693 33.7653 30.512 34.088C31.0693 34.4107 31.8393 34.8287 32.822 35.342C33.9073 35.8847 34.7873 36.3687 35.462 36.794C36.1367 37.2047 36.7013 37.6887 37.156 38.246C37.6253 38.7887 37.86 39.4047 37.86 40.094C37.86 40.8273 37.53 41.6193 36.87 42.47C36.21 43.306 35.4033 44.0173 34.45 44.604C33.5113 45.176 32.6533 45.462 31.876 45.462C30.9227 45.462 29.786 45.352 28.466 45.132C27.1607 44.912 26.222 44.6773 25.65 44.428V40.16H26.486C27.234 41.348 28.0847 42.272 29.038 42.932C29.9913 43.592 30.974 43.922 31.986 43.922C32.5873 43.922 33.1227 43.79 33.592 43.526C34.0613 43.262 34.4207 42.9173 34.67 42.492C34.9193 42.052 35.044 41.59 35.044 41.106ZM53.5723 45H49.3923V42.712L46.5983 45.044C46.2903 45.1613 45.887 45.22 45.3883 45.22C44.391 45.22 43.599 44.9193 43.0123 44.318C42.4256 43.702 42.1323 42.8733 42.1323 41.832V36.574L40.1743 35.43V34.748L43.9363 32.9H44.7723V40.732C44.7723 41.5387 44.897 42.1033 45.1463 42.426C45.3956 42.7487 45.843 42.91 46.4883 42.91C46.943 42.91 47.3903 42.8293 47.8303 42.668C48.2703 42.492 48.791 42.1547 49.3923 41.656V36.574L47.4343 35.43V34.748L51.1963 32.9H52.0323V43.35L54.0123 44.12L53.5723 45ZM63.9391 33.12C64.4231 33.12 64.8484 33.252 65.2151 33.516C65.5818 33.78 65.8678 34.1467 66.0731 34.616L64.6211 36.442H63.7851C63.7264 36.0753 63.6164 35.8187 63.4551 35.672C63.3084 35.5107 63.1031 35.43 62.8391 35.43C62.5164 35.43 62.1718 35.518 61.8051 35.694C61.4531 35.8553 61.0498 36.1707 60.5951 36.64V43.196L63.6751 44.142L63.2351 45.022H55.9971V44.34L57.9551 42.8V36.574L55.9971 35.43V34.748L59.7591 32.9L60.4411 35.606L62.7291 33.274C63.0371 33.1567 63.4404 33.098 63.9391 33.098V33.12ZM79.0213 34L73.4553 45H71.7833L68.3513 36.618L66.3053 35.43V34.748L70.0673 32.9L70.9033 36.222L73.5873 42.778L76.6893 36.332L73.7633 34.198L74.2033 33.318H79.0213V34ZM87.8839 45.044C87.2972 45.1613 86.5932 45.22 85.7719 45.22C84.8039 45.22 83.9312 44.9707 83.1539 44.472C82.3912 43.9587 81.7899 43.2693 81.3499 42.404C80.9245 41.5387 80.7119 40.5853 80.7119 39.544C80.7119 38.4147 81.0565 37.3587 81.7459 36.376C82.4352 35.3787 83.2932 34.5867 84.3199 34C85.3612 33.3987 86.3659 33.098 87.3339 33.098C88.7272 33.098 89.8052 33.648 90.5679 34.748C91.3452 35.848 91.7339 37.3 91.7339 39.104H83.5939C83.6819 40.3507 84.0192 41.37 84.6059 42.162C85.2072 42.954 86.0212 43.35 87.0479 43.35C88.0012 43.35 89.3579 42.6093 91.1179 41.128L91.7779 41.964L87.8839 45.044ZM86.0579 34.946C84.4739 34.946 83.6452 36.0313 83.5719 38.202H88.7199C88.5879 37.41 88.4485 36.8087 88.3019 36.398C88.1699 35.9727 87.9279 35.628 87.5759 35.364C87.2385 35.0853 86.7325 34.946 86.0579 34.946ZM106.135 34L100.569 45L95.9926 50.808L95.1566 50.148C95.9926 49.2533 96.6233 48.4687 97.0486 47.794C97.4886 47.1193 97.7966 46.4373 97.9726 45.748C98.1486 45.0733 98.2366 44.2667 98.2366 43.328L95.4646 36.618L93.4186 35.43V34.748L97.1806 32.9L98.0166 36.222L100.701 42.778L103.803 36.332L100.877 34.198L101.317 33.318H106.135V34ZM116.587 36.574C117.585 36.574 118.369 36.3027 118.941 35.76C119.528 35.2173 119.821 34.4693 119.821 33.516C119.821 32.1667 119.477 31.0667 118.787 30.216C118.113 29.3507 117.123 28.918 115.817 28.918C114.82 28.918 113.911 29.204 113.089 29.776V43.196L116.499 44.142L116.059 45.022H108.271V44.34L110.339 42.712V29.336L108.051 28.588L108.491 27.708H111.043C112.466 27.708 113.867 27.664 115.245 27.576C116.272 27.5173 117.027 27.488 117.511 27.488C118.538 27.488 119.447 27.708 120.239 28.148C121.046 28.5733 121.669 29.1673 122.109 29.93C122.549 30.6927 122.769 31.536 122.769 32.46C122.769 33.4867 122.395 34.4547 121.647 35.364C120.899 36.2733 119.946 36.9847 118.787 37.498C117.629 38.0113 116.492 38.2387 115.377 38.18L114.343 37.432L114.783 36.552H116.565L116.587 36.574ZM131.377 33.098C132.345 33.098 133.21 33.3547 133.973 33.868C134.75 34.3667 135.352 35.0487 135.777 35.914C136.217 36.7793 136.437 37.7327 136.437 38.774C136.437 39.9033 136.092 40.9667 135.403 41.964C134.714 42.9467 133.848 43.7387 132.807 44.34C131.78 44.9267 130.783 45.22 129.815 45.22C128.847 45.22 127.974 44.9707 127.197 44.472C126.434 43.9587 125.833 43.2693 125.393 42.404C124.968 41.5387 124.755 40.5853 124.755 39.544C124.755 38.4147 125.1 37.3587 125.789 36.376C126.478 35.3787 127.336 34.5867 128.363 34C129.404 33.3987 130.409 33.098 131.377 33.098ZM130.101 34.946C128.444 34.946 127.615 36.1267 127.615 38.488C127.615 39.8813 127.916 41.0473 128.517 41.986C129.118 42.91 129.976 43.372 131.091 43.372C132.748 43.372 133.577 42.184 133.577 39.808C133.577 38.4293 133.276 37.278 132.675 36.354C132.074 35.4153 131.216 34.946 130.101 34.946ZM147.127 33.12C147.611 33.12 148.036 33.252 148.403 33.516C148.769 33.78 149.055 34.1467 149.261 34.616L147.809 36.442H146.973C146.914 36.0753 146.804 35.8187 146.643 35.672C146.496 35.5107 146.291 35.43 146.027 35.43C145.704 35.43 145.359 35.518 144.993 35.694C144.641 35.8553 144.237 36.1707 143.783 36.64V43.196L146.863 44.142L146.423 45.022H139.185V44.34L141.143 42.8V36.574L139.185 35.43V34.748L142.947 32.9L143.629 35.606L145.917 33.274C146.225 33.1567 146.628 33.098 147.127 33.098V33.12ZM156.863 45.044C156.525 45.1613 156.115 45.22 155.631 45.22C154.413 45.22 153.519 44.9047 152.947 44.274C152.389 43.6287 152.111 42.6387 152.111 41.304V34.88H149.735V33.978L153.915 29.116H154.751V33.978H158.711V34.88H154.751V41.568C154.751 42.756 155.323 43.35 156.467 43.35C156.775 43.35 157.068 43.284 157.347 43.152C157.64 43.02 157.999 42.7853 158.425 42.448L159.085 43.284L156.863 45.044ZM172.088 45H167.908V43.086L165.422 45.044C165.129 45.1613 164.762 45.22 164.322 45.22C163.061 45.22 162.144 44.9047 161.572 44.274C161.015 43.6433 160.736 42.888 160.736 42.008C160.736 41.48 160.927 40.9593 161.308 40.446C161.689 39.9327 162.232 39.4487 162.936 38.994H167.908V37.586C167.908 36.6327 167.651 35.958 167.138 35.562C166.639 35.166 165.95 34.968 165.07 34.968C164.161 34.968 163.046 35.518 161.726 36.618L161.066 35.782L164.234 33.274C164.821 33.1567 165.525 33.098 166.346 33.098C167.681 33.098 168.715 33.428 169.448 34.088C170.181 34.7333 170.548 35.6793 170.548 36.926V43.35L172.528 44.12L172.088 45ZM165.026 43.35C165.921 43.35 166.881 42.9393 167.908 42.118V39.896H164.014C163.823 40.1307 163.684 40.3653 163.596 40.6C163.523 40.8347 163.486 41.0913 163.486 41.37C163.486 41.9127 163.625 42.382 163.904 42.778C164.183 43.1593 164.557 43.35 165.026 43.35ZM179.988 45H173.85V44.318L175.808 42.778V29.248L173.85 27.884V27.202L177.612 25.794H178.448V43.35L180.428 44.12L179.988 45Z" fill="white"/>
</g>
<defs>
<filter id="filter0_d_3223_23587" x="0.650391" y="0.793945" width="204.777" height="75.0142" filterUnits="userSpaceOnUse" color-interpolation-filters="sRGB">
<feFlood flood-opacity="0" result="BackgroundImageFix"/>
<feColorMatrix in="SourceAlpha" type="matrix" values="0 0 0 0 0 0 0 0 0 0 0 0 0 0 0 0 0 0 127 0" result="hardAlpha"/>
<feOffset/>
<feGaussianBlur stdDeviation="12.5"/>
<feComposite in2="hardAlpha" operator="out"/>
<feColorMatrix type="matrix" values="0 0 0 0 0.32549 0 0 0 0 0.454902 0 0 0 0 0.694118 0 0 0 1 0"/>
<feBlend mode="normal" in2="BackgroundImageFix" result="effect1_dropShadow_3223_23587"/>
<feBlend mode="normal" in="SourceGraphic" in2="effect1_dropShadow_3223_23587" result="shape"/>
</filter>
</defs>
</svg>
